ply
format ascii 1.0
comment VCGLIB generated
element vertex 188
property float x
property float y
property float z
property float nx
property float ny
property float nz
property uchar red
property uchar green
property uchar blue
property uchar alpha
element face 356
property list uchar int vertex_indices
property list uchar float texcoord
end_header
135.86 135.841 31.9957 -2 -2 2 192 192 192 255 
140.896 135.841 31.9957 1 -1 1 192 192 192 255 
140.896 138.042 31.9957 2 2 2 192 192 192 255 
135.86 138.042 31.9957 -1 1 1 192 192 192 255 
135.86 138.042 -39.788 -2 2 -2 192 192 192 255 
140.896 138.042 -39.788 1 1 -1 192 192 192 255 
135.86 135.841 -39.788 -1 -1 -1 192 192 192 255 
140.896 135.841 -39.788 2 -2 -2 192 192 192 255 
87.4848 125.582 20.2829 -1.34424 -1.97015 177.849 87 223 198 0 
87.4848 125.582 18.2041 -2.17212 -0.985076 -4 87 223 198 0 
126.751 118.721 18.2041 -0.34424 -2.97015 -1 87 223 198 0 
126.751 118.721 20.2829 -0.17212 -2.98508 177.849 87 223 198 0 
152.304 118.721 18.2041 0.138293 -2.99039 -151.029 87 223 198 0 
152.304 118.721 20.2829 0.276585 -2.98078 1 87 223 198 0 
94.3739 127.006 20.2829 0.420627 -0.987814 3 87 223 198 0 
94.3739 127.006 18.2041 0.40831 0.992968 -3 87 223 198 0 
138.896 133.5 18.2041 0.128261 -2.96612 -4 87 223 198 0 
138.896 133.5 20.2829 -0.176422 -2.96365 4 87 223 198 0 
87.4848 128.564 20.2829 -2.14603 0.98928 3 87 223 198 0 
87.4848 128.564 18.2041 -1.29206 1.97856 -3 87 223 198 0 
187.548 123.643 20.2829 1.13829 -0.990391 4 87 223 198 0 
138.896 121.078 20.2829 0.153091 2.97633 178.849 87 223 198 0 
184.221 126.136 20.2829 -0.382176 1.00061 3 87 223 198 0 
187.548 128.564 20.2829 2.30824 1.9761 3 87 223 198 0 
138.896 136.153 20.2829 -0.13794 2.96661 2 87 223 198 0 
138.896 121.078 18.2041 -0.0898099 2.97891 -152.029 87 223 198 0 
187.548 123.643 18.2041 2.27659 -1.98078 -151.029 87 223 198 0 
187.548 128.564 18.2041 1.15412 0.988052 -3 87 223 198 0 
184.221 126.136 18.2041 -0.431641 -0.980283 -3 87 223 198 0 
138.896 136.153 18.2041 0.162213 2.96538 -2 87 223 198 0 
87.4848 125.582 -21.9612 -1.34424 -1.97015 177.849 87 223 198 0 
87.4848 125.582 -24.04 -2.17212 -0.985076 -4 87 223 198 0 
126.751 118.721 -24.04 -0.34424 -2.97015 -1 87 223 198 0 
126.751 118.721 -21.9612 -0.17212 -2.98508 177.849 87 223 198 0 
152.304 118.721 -21.9612 0.276585 -2.98078 1 87 223 198 0 
187.548 123.643 -21.9612 1.13829 -0.990391 4 87 223 198 0 
138.896 121.078 -21.9612 0.153091 2.97633 178.849 87 223 198 0 
184.221 126.136 -21.9612 -0.382176 1.00061 3 87 223 198 0 
187.548 128.564 -21.9612 2.30824 1.9761 3 87 223 198 0 
138.896 133.5 -21.9612 -0.176422 -2.96365 4 87 223 198 0 
138.896 136.153 -21.9612 -0.13794 2.96661 2 87 223 198 0 
87.4848 128.564 -21.9612 -2.14603 0.98928 3 87 223 198 0 
94.3739 127.006 -21.9612 0.420627 -0.987814 3 87 223 198 0 
152.304 118.721 -24.04 0.138293 -2.99039 -151.029 87 223 198 0 
187.548 123.643 -24.04 2.27659 -1.98078 -151.029 87 223 198 0 
187.548 128.564 -24.04 1.15412 0.988052 -3 87 223 198 0 
138.896 133.5 -24.04 0.128261 -2.96612 -4 87 223 198 0 
184.221 126.136 -24.04 -0.431641 -0.980283 -3 87 223 198 0 
94.3739 127.006 -24.04 0.40831 0.992968 -3 87 223 198 0 
138.896 121.078 -24.04 -0.0898099 2.97891 -152.029 87 223 198 0 
87.4848 128.564 -24.04 -1.29206 1.97856 -3 87 223 198 0 
138.896 136.153 -24.04 0.162213 2.96538 -2 87 223 198 0 
-149.665 -0 35.0394 -2 -2 2 223 198 87 0 
-54.7833 -0 35.0394 1 -1 1 223 198 87 0 
-54.7833 27.9528 35.0394 2 0 2 223 198 87 0 
-149.665 27.9528 35.0394 -1 0 1 223 198 87 0 
-54.7833 -0 -32.2835 2 -2 -2 223 198 87 0 
-149.665 -0 -32.2835 -1 -1 -1 223 198 87 0 
-149.665 27.9528 -32.2835 -2 0 -2 223 198 87 0 
-54.7833 27.9528 -32.2835 1 0 -1 223 198 87 0 
149.869 -0 -32.2835 2 -2 -2 223 198 87 0 
54.9873 -0 -32.2835 -1 -1 -1 223 198 87 0 
54.9873 27.9528 -32.2835 -2 0 -2 223 198 87 0 
149.869 27.9528 -32.2835 1 0 -1 223 198 87 0 
54.9873 -0 35.0394 -2 -2 2 223 198 87 0 
149.869 -0 35.0394 1 -1 1 223 198 87 0 
149.869 27.9528 35.0394 2 0 2 223 198 87 0 
54.9873 27.9528 35.0394 -1 0 1 223 198 87 0 
-283.493 112.373 -29.6772 -398.147 2.28719 -721.458 134 110 8 0 
-283.493 25.226 -29.6772 -2362.93 -995.643 -716.321 134 110 8 0 
-291.761 57.0483 -25.1368 -3859.11 -906.369 -716.428 134 110 8 0 
280.658 111.038 -30.3342 1788.87 1.36247 -4669.87 134 110 8 0 
291.761 52.2343 -24.0701 540.631 -0.573878 -953.219 134 110 8 0 
280.658 25.1837 -30.3342 1823.03 -13.9948 -4670.82 134 110 8 0 
280.658 111.038 30.2958 1686.66 2.16833 4669.87 134 110 8 0 
280.658 25.1837 30.2958 1688.52 -1.10458 4670.82 134 110 8 0 
291.761 52.2343 25.2508 437.875 -0.76805 953.219 134 110 8 0 
-291.761 57.0483 24.5358 -2057.3 -410.383 716.428 134 110 8 0 
-283.493 112.373 30.2958 -500.499 1.1436 717.384 134 110 8 0 
-283.493 25.7192 30.2958 -4007.13 -1151.21 724.43 134 110 8 0 
-95.4936 118.721 -9.684 -2 2 -2 134 110 8 0 
-95.4936 118.721 4.883 -1 1 1 134 110 8 0 
-49.4306 118.721 4.883 2 2 2 134 110 8 0 
-49.4306 118.721 -9.684 1 1 -1 134 110 8 0 
-44.5992 123.052 -12.7076 -2 2 -2 134 110 8 0 
-44.5992 123.052 9.3396 -1 1 1 134 110 8 0 
-34.7566 123.052 9.3396 2 2 2 134 110 8 0 
-34.7566 123.052 -12.7076 1 1 -1 134 110 8 0 
112.374 118.721 -29.3234 -2 2 -2 134 110 8 0 
112.374 118.721 25.0073 -1 1 1 134 110 8 0 
160.799 118.721 25.0073 2 2 2 134 110 8 0 
160.799 118.721 -29.3234 1 1 -1 134 110 8 0 
237.367 116.753 -44.8819 1249.88 11.9828 -3720.55 134 110 8 0 
237.367 116.753 44.8819 1253.05 12.9914 3724.55 134 110 8 0 
-188.357 116.753 8.3469 -2 1069.03 2 134 110 8 0 
-235.861 116.753 -44.8819 -1.00385 1070.03 -8.85793 134 110 8 0 
-235.861 116.753 44.8819 -1.35434 4.9916 5.82469 134 110 8 0 
-163.096 116.753 18.5792 -2 6 2 134 110 8 0 
-98.5291 116.753 18.5792 1 3 1 134 110 8 0 
-95.4936 116.753 4.883 -2 5 2 134 110 8 0 
-44.5992 116.753 9.3396 -2 5 2 134 110 8 0 
-34.7566 116.753 9.3396 1 170.006 1 134 110 8 0 
-27.1363 116.753 5.2656 -2 173.006 2 134 110 8 0 
112.374 116.753 25.0073 -2 8 2 134 110 8 0 
160.799 116.753 25.0073 1 3 1 134 110 8 0 
167.726 116.753 8.7213 -2 4 2 134 110 8 0 
187.017 116.753 8.7213 1 2 1 134 110 8 0 
187.017 116.753 -14.1134 2 3 -2 134 110 8 0 
167.726 116.753 -14.1134 -1 3 -1 134 110 8 0 
160.799 116.753 -29.3234 2 4 -2 134 110 8 0 
112.374 116.753 -29.3234 -1 8 -1 134 110 8 0 
-34.7566 116.753 -12.7076 2 172.006 -2 134 110 8 0 
-44.5992 116.753 -12.7076 -1 4 -1 134 110 8 0 
-95.4936 116.753 -9.684 -1 4 -1 134 110 8 0 
-98.5291 116.753 -22.7594 2 4 -2 134 110 8 0 
-163.096 116.753 -22.7594 -1 5 -1 134 110 8 0 
-188.357 116.753 -14.0941 -1 1068.03 -1 134 110 8 0 
-169.46 116.753 -14.0941 2 3 -2 134 110 8 0 
-169.46 116.753 8.3469 1 2 1 134 110 8 0 
-49.4306 116.753 -9.684 2 3 -2 134 110 8 0 
-49.4306 116.753 4.883 1 2 1 134 110 8 0 
-27.1363 116.753 -7.3328 -1 4 -1 134 110 8 0 
24.4528 116.753 -13.2517 -1 4 -1 134 110 8 0 
19.3204 116.753 -7.3328 2 3 -2 134 110 8 0 
24.4528 116.753 9.583 -2 5 2 134 110 8 0 
19.3204 116.753 5.2656 1 2 1 134 110 8 0 
44.1378 116.753 9.583 1 3 1 134 110 8 0 
46.6282 116.753 4.5554 -2 4 2 134 110 8 0 
110.408 116.753 4.5554 1 2 1 134 110 8 0 
110.408 116.753 -9.6179 2 3 -2 134 110 8 0 
46.6282 116.753 -9.6179 -1 3 -1 134 110 8 0 
44.1378 116.753 -13.2517 2 4 -2 134 110 8 0 
-279.413 24.9794 31.5452 -62.8944 -500.41 3.92466 134 110 8 0 
156.983 10.8473 44.8819 -0.923331 -2.384 2 134 110 8 0 
237.367 10.8473 44.8819 0.459628 -2.99507 1.94765 134 110 8 0 
149.869 27.9528 44.8819 -1.84666 -1.76801 2 134 110 8 0 
54.9873 27.9528 44.8819 1.80686 -2.85747 4 134 110 8 0 
-54.7833 27.9528 44.8819 -0.876303 -1.48176 3 134 110 8 0 
-151.634 27.9528 44.8819 0.903431 -2.42873 4 134 110 8 0 
-235.861 10.8473 44.8819 -0.292804 -2 2.95617 134 110 8 0 
-159.751 10.8473 44.8819 1.80686 -2.85747 1 134 110 8 0 
-45.3793 10.8473 44.8819 -1.75261 -2.96352 2 134 110 8 0 
46.8697 10.8473 44.8819 0.903431 -1.42873 1 134 110 8 0 
-279.413 24.9794 -30.9796 -17.2839 -255.411 -2.85793 134 110 8 0 
280.658 25.1837 26.8305 4.64657 -1.84696 -0.000711441 134 110 8 0 
279.673 22.6527 27.0486 2.79637 -1.08752 -0.000711441 134 110 8 0 
279.673 22.6527 -27.9551 4.66002 -1.81223 4.27951e-05 134 110 8 0 
280.658 25.1837 -27.6649 4.63933 -1.86402 2.13976e-05 134 110 8 0 
-274.922 10.8473 -32.4132 -2.21016 -1.60574 -0.952642 134 110 8 0 
-274.922 10.8473 32.9205 -1.53864 -2.30287 1.91235 134 110 8 0 
-163.096 118.721 -22.7594 -2 2 -2 134 110 8 0 
-163.096 118.721 18.5792 -1 1 1 134 110 8 0 
-98.5291 118.721 18.5792 2 2 2 134 110 8 0 
-98.5291 118.721 -22.7594 1 1 -1 134 110 8 0 
276.143 13.5747 31.8169 1.64077 -1.35997 1.89531 134 110 8 0 
276.143 13.5747 27.831 2.79637 -1.08751 -0.000711441 134 110 8 0 
-188.357 123.052 -14.0941 -2 2 -2 134 110 8 0 
-188.357 123.052 8.3469 -1 1 1 134 110 8 0 
-169.46 123.052 8.3469 2 2 2 134 110 8 0 
-169.46 123.052 -14.0941 1 1 -1 134 110 8 0 
-27.1363 118.721 -7.3328 -2 2 -2 134 110 8 0 
-27.1363 118.721 5.2656 -1 1 1 134 110 8 0 
19.3204 118.721 5.2656 2 2 2 134 110 8 0 
19.3204 118.721 -7.3328 1 1 -1 134 110 8 0 
24.4528 123.052 -13.2517 -2 2 -2 134 110 8 0 
24.4528 123.052 9.583 -1 1 1 134 110 8 0 
44.1378 123.052 9.583 2 2 2 134 110 8 0 
44.1378 123.052 -13.2517 1 1 -1 134 110 8 0 
46.6282 118.721 -9.6179 -2 2 -2 134 110 8 0 
46.6282 118.721 4.5554 -1 1 1 134 110 8 0 
110.408 118.721 4.5554 2 2 2 134 110 8 0 
110.408 118.721 -9.6179 1 1 -1 134 110 8 0 
276.143 13.5747 -31.8513 33.9246 -14.8853 -1.89582 134 110 8 0 
237.367 10.8473 -44.8819 0.388709 -2.99754 -2.94791 134 110 8 0 
-235.861 10.8473 -44.8819 -0.608189 -4 -2.90528 134 110 8 0 
-159.751 10.8473 -44.8819 0.903431 -1.42873 -2 134 110 8 0 
-151.634 27.9528 -44.8819 1.80686 -1.85747 -2 134 110 8 0 
-54.7833 27.9528 -44.8819 -1.75261 -2.96352 -3 134 110 8 0 
54.9873 27.9528 -44.8819 0.903431 -1.42873 -4 134 110 8 0 
149.869 27.9528 -44.8819 -0.923331 -2.384 -4 134 110 8 0 
156.983 10.8473 -44.8819 -1.84666 -1.76801 -1 134 110 8 0 
-45.3793 10.8473 -44.8819 -0.876303 -1.48176 -2 134 110 8 0 
46.8697 10.8473 -44.8819 1.80686 -2.85747 -1 134 110 8 0 
167.726 123.052 -14.1134 -2 2 -2 134 110 8 0 
167.726 123.052 8.7213 -1 1 1 134 110 8 0 
187.017 123.052 8.7213 2 2 2 134 110 8 0 
187.017 123.052 -14.1134 1 1 -1 134 110 8 0 
276.143 13.5747 -28.996 35.9432 -13.9775 2.13976e-05 134 110 8 0 
3 0 1 2 6 0.6035 0.3831 0.7098 0.3831 0.7098 0.3994 
3 0 2 3 6 0.6035 0.3831 0.7098 0.3994 0.6035 0.3994 
3 4 3 2 6 0.6035 -0.8604 0.6035 -1.3905 0.7098 -1.3905 
3 4 2 5 6 0.6035 -0.8604 0.7098 -1.3905 0.7098 -0.8604 
3 0 3 4 6 1.3905 0.3831 1.3905 0.3994 0.8604 0.3994 
3 0 4 6 6 1.3905 0.3831 0.8604 0.3994 0.8604 0.3831 
3 0 6 7 6 -0.6035 -1.3905 -0.6035 -0.8604 -0.7098 -0.8604 
3 0 7 1 6 -0.6035 -1.3905 -0.7098 -0.8604 -0.7098 -1.3905 
3 7 6 4 6 -0.7098 0.3831 -0.6035 0.3831 -0.6035 0.3994 
3 7 4 5 6 -0.7098 0.3831 -0.6035 0.3994 -0.7098 0.3994 
3 2 1 7 6 -1.3905 0.3994 -1.3905 0.3831 -0.8604 0.3831 
3 2 7 5 6 -1.3905 0.3994 -0.8604 0.3831 -0.8604 0.3994 
3 8 9 10 6 2.0437 0.01 2.0437 0 2.2354 0 
3 8 10 11 6 2.0437 0.01 2.2354 0 2.2354 0.01 
3 11 10 12 6 2.2742 0.01 2.2742 0 2.3971 0 
3 11 12 13 6 2.2742 0.01 2.3971 0 2.3971 0.01 
3 14 15 16 6 2.1061 0.01 2.1061 0 2.3225 0 
3 14 16 17 6 2.1061 0.01 2.3225 0 2.3225 0.01 
3 9 8 18 6 -0.061 -0 -0.061 0.01 -0.0754 0.01 
3 9 18 19 6 -0.061 -0 -0.0754 0.01 -0.0754 -0 
3 11 13 20 6 2.2742 0.028 2.3971 0.028 2.5667 0.0517 
3 11 20 21 6 2.2742 0.028 2.5667 0.0517 2.3326 0.0394 
3 22 21 20 6 2.5507 0.0637 2.3326 0.0394 2.5667 0.0517 
3 22 20 23 6 2.5507 0.0637 2.5667 0.0517 2.5667 0.0754 
3 17 22 23 6 2.3326 0.0991 2.5507 0.0637 2.5667 0.0754 
3 17 23 24 6 2.3326 0.0991 2.5667 0.0754 2.3326 0.1119 
3 17 24 18 6 2.3326 0.0991 2.3326 0.1119 2.0853 0.0754 
3 17 18 14 6 2.3326 0.0991 2.0853 0.0754 2.1184 0.0679 
3 14 18 8 6 2.1184 0.0679 2.0853 0.0754 2.0853 0.061 
3 14 8 21 6 2.1184 0.0679 2.0853 0.061 2.3326 0.0394 
3 21 8 11 6 2.3326 0.0394 2.0853 0.061 2.2742 0.028 
3 15 14 21 6 -2.0909 0 -2.0909 0.01 -2.307 0.01 
3 15 21 25 6 -2.0909 0 -2.307 0.01 -2.307 0 
3 23 20 26 6 0.0754 0.01 0.0517 0.01 0.0517 0 
3 23 26 27 6 0.0754 0.01 0.0517 0 0.0754 -0 
3 25 21 22 6 -2.3226 0 -2.3226 0.01 -2.542 0.01 
3 25 22 28 6 -2.3226 0 -2.542 0.01 -2.542 0 
3 29 24 23 6 -2.2875 0 -2.2875 0.01 -2.5244 0.01 
3 29 23 27 6 -2.2875 0 -2.5244 0.01 -2.5244 0 
3 17 16 28 6 2.2865 0.01 2.2865 -0 2.5074 -0 
3 17 28 22 6 2.2865 0.01 2.5074 -0 2.5074 0.01 
3 19 18 24 6 -2.0739 0 -2.0739 0.01 -2.3239 0.01 
3 19 24 29 6 -2.0739 0 -2.3239 0.01 -2.3239 0 
3 12 10 9 6 -2.3971 0.028 -2.2742 0.028 -2.0853 0.061 
3 12 9 25 6 -2.3971 0.028 -2.0853 0.061 -2.3326 0.0394 
3 15 25 9 6 -2.1184 0.0679 -2.3326 0.0394 -2.0853 0.061 
3 15 9 19 6 -2.1184 0.0679 -2.0853 0.061 -2.0853 0.0754 
3 16 15 19 6 -2.3326 0.0991 -2.1184 0.0679 -2.0853 0.0754 
3 16 19 29 6 -2.3326 0.0991 -2.0853 0.0754 -2.3326 0.1119 
3 16 29 27 6 -2.3326 0.0991 -2.3326 0.1119 -2.5667 0.0754 
3 16 27 28 6 -2.3326 0.0991 -2.5667 0.0754 -2.5507 0.0637 
3 28 27 26 6 -2.5507 0.0637 -2.5667 0.0754 -2.5667 0.0517 
3 28 26 25 6 -2.5507 0.0637 -2.5667 0.0517 -2.3326 0.0394 
3 25 26 12 6 -2.3326 0.0394 -2.5667 0.0517 -2.3971 0.028 
3 13 12 26 6 2.378 0.01 2.378 0 2.5491 0 
3 13 26 20 6 2.378 0.01 2.5491 0 2.5491 0.01 
3 30 31 32 6 2.0437 0.01 2.0437 0 2.2354 0 
3 30 32 33 6 2.0437 0.01 2.2354 0 2.2354 0.01 
3 33 34 35 6 2.2742 0.028 2.3971 0.028 2.5667 0.0517 
3 33 35 36 6 2.2742 0.028 2.5667 0.0517 2.3326 0.0394 
3 37 36 35 6 2.5507 0.0637 2.3326 0.0394 2.5667 0.0517 
3 37 35 38 6 2.5507 0.0637 2.5667 0.0517 2.5667 0.0754 
3 39 37 38 6 2.3326 0.0991 2.5507 0.0637 2.5667 0.0754 
3 39 38 40 6 2.3326 0.0991 2.5667 0.0754 2.3326 0.1119 
3 39 40 41 6 2.3326 0.0991 2.3326 0.1119 2.0853 0.0754 
3 39 41 42 6 2.3326 0.0991 2.0853 0.0754 2.1184 0.0679 
3 42 41 30 6 2.1184 0.0679 2.0853 0.0754 2.0853 0.061 
3 42 30 36 6 2.1184 0.0679 2.0853 0.061 2.3326 0.0394 
3 36 30 33 6 2.3326 0.0394 2.0853 0.061 2.2742 0.028 
3 33 32 43 6 2.2742 0.01 2.2742 0 2.3971 0 
3 33 43 34 6 2.2742 0.01 2.3971 0 2.3971 0.01 
3 38 35 44 6 0.0754 0.01 0.0517 0.01 0.0517 0 
3 38 44 45 6 0.0754 0.01 0.0517 0 0.0754 -0 
3 39 46 47 6 2.2865 0.01 2.2865 -0 2.5074 -0 
3 39 47 37 6 2.2865 0.01 2.5074 -0 2.5074 0.01 
3 48 42 36 6 -2.0909 0 -2.0909 0.01 -2.307 0.01 
3 48 36 49 6 -2.0909 0 -2.307 0.01 -2.307 0 
3 31 30 41 6 -0.061 -0 -0.061 0.01 -0.0754 0.01 
3 31 41 50 6 -0.061 -0 -0.0754 0.01 -0.0754 -0 
3 50 41 40 6 -2.0739 0 -2.0739 0.01 -2.3239 0.01 
3 50 40 51 6 -2.0739 0 -2.3239 0.01 -2.3239 0 
3 43 32 31 6 -2.3971 0.028 -2.2742 0.028 -2.0853 0.061 
3 43 31 49 6 -2.3971 0.028 -2.0853 0.061 -2.3326 0.0394 
3 48 49 31 6 -2.1184 0.0679 -2.3326 0.0394 -2.0853 0.061 
3 48 31 50 6 -2.1184 0.0679 -2.0853 0.061 -2.0853 0.0754 
3 46 48 50 6 -2.3326 0.0991 -2.1184 0.0679 -2.0853 0.0754 
3 46 50 51 6 -2.3326 0.0991 -2.0853 0.0754 -2.3326 0.1119 
3 46 51 45 6 -2.3326 0.0991 -2.3326 0.1119 -2.5667 0.0754 
3 46 45 47 6 -2.3326 0.0991 -2.5667 0.0754 -2.5507 0.0637 
3 47 45 44 6 -2.5507 0.0637 -2.5667 0.0754 -2.5667 0.0517 
3 47 44 49 6 -2.5507 0.0637 -2.5667 0.0517 -2.3326 0.0394 
3 49 44 43 6 -2.3326 0.0394 -2.5667 0.0517 -2.3971 0.028 
3 42 48 46 6 2.1061 0.01 2.1061 0 2.3225 0 
3 42 46 39 6 2.1061 0.01 2.3225 0 2.3225 0.01 
3 49 36 37 6 -2.3226 0 -2.3226 0.01 -2.542 0.01 
3 49 37 47 6 -2.3226 0 -2.542 0.01 -2.542 0 
3 34 43 44 6 2.378 0.01 2.378 0 2.5491 0 
3 34 44 35 6 2.378 0.01 2.5491 0 2.5491 0.01 
3 51 40 38 6 -2.2875 0 -2.2875 0.01 -2.5244 0.01 
3 51 38 45 6 -2.2875 0 -2.5244 0.01 -2.5244 0 
3 52 53 54 6 9.0017 -0.9807 10.0017 -0.9807 10.0017 -0.0063 
3 52 54 55 6 9.0017 -0.9807 10.0017 -0.0063 9.0017 -0.0063 
3 56 57 58 6 -9 -1 -8 -1 -8 -0.0255 
3 56 58 59 6 -9 -1 -8 -0.0255 -9 -0.0255 
3 60 61 62 6 -9 -1 -8 -1 -8 -0.0255 
3 60 62 63 6 -9 -1 -8 -0.0255 -9 -0.0255 
3 64 65 66 6 9.0017 -0.9807 10.0017 -0.9807 10.0017 -0.0063 
3 64 66 67 6 9.0017 -0.9807 10.0017 -0.0063 9.0017 -0.0063 
3 52 57 56 6 -1.3397 0.0471 -1.3397 0.2608 -1.6409 0.2608 
3 52 56 53 6 -1.3397 0.0471 -1.6409 0.2608 -1.6409 0.0471 
3 54 53 56 6 1.2186 -0.0176 1.2186 -0.1063 1.4323 -0.1063 
3 54 56 59 6 1.2186 -0.0176 1.4323 -0.1063 1.4323 -0.0176 
3 52 55 58 6 1.0893 -0.1063 1.0893 -0.0176 0.8755 -0.0176 
3 52 58 57 6 1.0893 -0.1063 0.8755 -0.0176 0.8755 -0.1063 
3 64 61 60 6 -1.3397 0.0471 -1.3397 0.2608 -1.6409 0.2608 
3 64 60 65 6 -1.3397 0.0471 -1.6409 0.2608 -1.6409 0.0471 
3 66 65 60 6 1.2186 -0.0176 1.2186 -0.1063 1.4323 -0.1063 
3 66 60 63 6 1.2186 -0.0176 1.4323 -0.1063 1.4323 -0.0176 
3 64 67 62 6 1.0893 -0.1063 1.0893 -0.0176 0.8755 -0.0176 
3 64 62 61 6 1.0893 -0.1063 0.8755 -0.0176 0.8755 -0.1063 
3 68 69 70 6 0.1246 0.657 0.1246 0.9338 0.1121 0.8327 
3 71 72 73 6 0.8736 0.6613 0.8904 0.848 0.8736 0.9339 
3 74 75 76 6 0.8718 0.3442 0.8718 0.0716 0.8879 0.1575 
3 77 78 68 6 0.0554 0.428 0.129 0.4097 0.129 0.6001 
3 77 68 70 6 0.0554 0.428 0.129 0.6001 0.0554 0.5857 
3 78 77 79 6 0.1229 0.3485 0.1097 0.1728 0.1229 0.0733 
3 80 81 82 6 0.3752 0.5313 0.3752 0.4851 0.4359 0.4851 
3 80 82 83 6 0.3752 0.5313 0.4359 0.4851 0.4359 0.5313 
3 84 85 86 6 0.4422 0.5409 0.4422 0.4709 0.4552 0.4709 
3 84 86 87 6 0.4422 0.5409 0.4552 0.4709 0.4552 0.5409 
3 88 89 90 6 0.6489 0.5937 0.6489 0.4212 0.7127 0.4212 
3 88 90 91 6 0.6489 0.5937 0.7127 0.4212 0.7127 0.5937 
3 92 93 74 6 0.8135 0.6431 0.8135 0.3581 0.871 0.4044 
3 92 74 71 6 0.8135 0.6431 0.871 0.4044 0.871 0.5969 
3 94 95 96 6 0.2529 0.4741 0.1904 0.6431 0.1904 0.3581 
3 94 96 97 6 0.2529 0.4741 0.1904 0.3581 0.2862 0.4416 
3 97 96 93 6 0.2862 0.4416 0.1904 0.3581 0.8135 0.3581 
3 97 93 98 6 0.2862 0.4416 0.8135 0.3581 0.3712 0.4416 
3 99 98 93 6 0.3752 0.4851 0.3712 0.4416 0.8135 0.3581 
3 99 93 100 6 0.3752 0.4851 0.8135 0.3581 0.4422 0.4709 
3 101 100 93 6 0.4552 0.4709 0.4422 0.4709 0.8135 0.3581 
3 101 93 102 6 0.4552 0.4709 0.8135 0.3581 0.4652 0.4839 
3 103 102 93 6 0.6489 0.4212 0.4652 0.4839 0.8135 0.3581 
3 103 93 104 6 0.6489 0.4212 0.8135 0.3581 0.7127 0.4212 
3 105 104 93 6 0.7218 0.4729 0.7127 0.4212 0.8135 0.3581 
3 105 93 106 6 0.7218 0.4729 0.8135 0.3581 0.7472 0.4729 
3 107 106 93 6 0.7472 0.5454 0.7472 0.4729 0.8135 0.3581 
3 107 93 92 6 0.7472 0.5454 0.8135 0.3581 0.8135 0.6431 
3 108 107 92 6 0.7218 0.5454 0.7472 0.5454 0.8135 0.6431 
3 108 92 109 6 0.7218 0.5454 0.8135 0.6431 0.7127 0.5937 
3 110 109 92 6 0.6489 0.5937 0.7127 0.5937 0.8135 0.6431 
3 110 92 111 6 0.6489 0.5937 0.8135 0.6431 0.4552 0.5409 
3 112 111 92 6 0.4422 0.5409 0.4552 0.5409 0.8135 0.6431 
3 112 92 113 6 0.4422 0.5409 0.8135 0.6431 0.3752 0.5313 
3 114 113 92 6 0.3712 0.5729 0.3752 0.5313 0.8135 0.6431 
3 114 92 115 6 0.3712 0.5729 0.8135 0.6431 0.2862 0.5729 
3 115 92 95 6 0.2862 0.5729 0.8135 0.6431 0.1904 0.6431 
3 115 95 116 6 0.2862 0.5729 0.1904 0.6431 0.2529 0.5453 
3 116 95 94 6 0.2529 0.5453 0.1904 0.6431 0.2529 0.4741 
3 115 116 117 6 0.2862 0.5729 0.2529 0.5453 0.2778 0.5453 
3 115 117 97 6 0.2862 0.5729 0.2778 0.5453 0.2862 0.4416 
3 97 117 118 6 0.2862 0.4416 0.2778 0.5453 0.2778 0.4741 
3 97 118 94 6 0.2862 0.4416 0.2778 0.4741 0.2529 0.4741 
3 99 113 114 6 0.3752 0.4851 0.3752 0.5313 0.3712 0.5729 
3 99 114 98 6 0.3752 0.4851 0.3712 0.5729 0.3712 0.4416 
3 112 113 119 6 0.4422 0.5409 0.3752 0.5313 0.4359 0.5313 
3 112 119 100 6 0.4422 0.5409 0.4359 0.5313 0.4422 0.4709 
3 100 119 120 6 0.4422 0.4709 0.4359 0.5313 0.4359 0.4851 
3 100 120 99 6 0.4422 0.4709 0.4359 0.4851 0.3752 0.4851 
3 121 110 111 6 0.4652 0.5239 0.6489 0.5937 0.4552 0.5409 
3 121 111 102 6 0.4652 0.5239 0.4552 0.5409 0.4652 0.4839 
3 101 102 111 6 0.4552 0.4709 0.4652 0.4839 0.4552 0.5409 
3 122 110 121 6 0.5332 0.5427 0.6489 0.5937 0.4652 0.5239 
3 122 121 123 6 0.5332 0.5427 0.4652 0.5239 0.5264 0.5239 
3 124 122 123 6 0.5332 0.4702 0.5332 0.5427 0.5264 0.5239 
3 124 123 125 6 0.5332 0.4702 0.5264 0.5239 0.5264 0.4839 
3 124 125 102 6 0.5332 0.4702 0.5264 0.4839 0.4652 0.4839 
3 124 102 103 6 0.5332 0.4702 0.4652 0.4839 0.6489 0.4212 
3 126 124 103 6 0.5591 0.4702 0.5332 0.4702 0.6489 0.4212 
3 126 103 127 6 0.5591 0.4702 0.6489 0.4212 0.5624 0.4861 
3 128 127 103 6 0.6463 0.4861 0.5624 0.4861 0.6489 0.4212 
3 128 103 129 6 0.6463 0.4861 0.6489 0.4212 0.6463 0.5311 
3 129 103 110 6 0.6463 0.5311 0.6489 0.4212 0.6489 0.5937 
3 129 110 130 6 0.6463 0.5311 0.6489 0.5937 0.5624 0.5311 
3 131 130 110 6 0.5591 0.5427 0.5624 0.5311 0.6489 0.5937 
3 131 110 122 6 0.5591 0.5427 0.6489 0.5937 0.5332 0.5427 
3 127 130 131 6 0.5624 0.4861 0.5624 0.5311 0.5591 0.5427 
3 127 131 126 6 0.5624 0.4861 0.5591 0.5427 0.5591 0.4702 
3 105 108 109 6 0.7218 0.4729 0.7218 0.5454 0.7127 0.5937 
3 105 109 104 6 0.7218 0.4729 0.7127 0.5937 0.7127 0.4212 
3 70 79 77 6 0.0554 0.5857 0.0127 0.4097 0.0554 0.428 
3 132 79 69 6 -1.27 -1.0719 -1.2683 -1.0851 -1.1894 -1.0849 
3 133 134 93 6 0.7058 0.0261 0.8116 0.0261 0.8116 0.3624 
3 133 93 135 6 0.7058 0.0261 0.8116 0.3624 0.6964 0.0804 
3 136 135 93 6 0.5715 0.0804 0.6964 0.0804 0.8116 0.3624 
3 136 93 137 6 0.5715 0.0804 0.8116 0.3624 0.427 0.0804 
3 138 137 93 6 0.2994 0.0804 0.427 0.0804 0.8116 0.3624 
3 138 93 96 6 0.2994 0.0804 0.8116 0.3624 0.1885 0.3624 
3 138 96 139 6 0.2994 0.0804 0.1885 0.3624 0.1885 0.0261 
3 138 139 140 6 0.2994 0.0804 0.1885 0.0261 0.2887 0.0261 
3 136 137 141 6 0.5715 0.0804 0.427 0.0804 0.4393 0.0261 
3 136 141 142 6 0.5715 0.0804 0.4393 0.0261 0.5608 0.0261 
3 132 69 143 6 -1.27 -1.0719 -1.1894 -1.0849 -1.1876 -1.0719 
3 144 145 146 6 0.9857 0.4259 0.989 0.4252 0.989 0.5869 
3 144 146 147 6 0.9857 0.4259 0.989 0.5869 0.9857 0.586 
3 148 149 132 6 -1.1858 -1.0248 -1.2718 -1.0248 -1.27 -1.0719 
3 148 132 143 6 -1.1858 -1.0248 -1.27 -1.0719 -1.1876 -1.0719 
3 150 151 152 6 0.2862 0.5729 0.2862 0.4416 0.3712 0.4416 
3 150 152 153 6 0.2862 0.5729 0.3712 0.4416 0.3712 0.5729 
3 69 79 70 6 0.0121 0.6001 0.0127 0.4097 0.0554 0.5857 
3 75 154 155 6 0.8504 0.0739 0.8441 0.037 0.8492 0.0337 
3 75 155 144 6 0.8504 0.0739 0.8492 0.0337 0.8548 0.071 
3 144 155 145 6 0.8548 0.071 0.8492 0.0337 0.8536 0.0629 
3 156 157 158 6 0.2529 0.5453 0.2529 0.4741 0.2778 0.4741 
3 156 158 159 6 0.2529 0.5453 0.2778 0.4741 0.2778 0.5453 
3 160 161 162 6 0.4652 0.5239 0.4652 0.4839 0.5264 0.4839 
3 160 162 163 6 0.4652 0.5239 0.5264 0.4839 0.5264 0.5239 
3 164 165 166 6 0.5332 0.5427 0.5332 0.4702 0.5591 0.4702 
3 164 166 167 6 0.5332 0.5427 0.5591 0.4702 0.5591 0.5427 
3 168 169 170 6 0.5624 0.5311 0.5624 0.4861 0.6463 0.4861 
3 168 170 171 6 0.5624 0.5311 0.6463 0.4861 0.6463 0.5311 
3 172 173 92 6 0.8674 0.9708 0.8135 0.9794 0.8135 0.6431 
3 172 92 73 6 0.8674 0.9708 0.8135 0.6431 0.8736 0.9339 
3 73 92 71 6 0.8736 0.9339 0.8135 0.6431 0.8736 0.6613 
3 174 148 143 6 0.1904 0.9794 0.1364 0.9794 0.1302 0.9345 
3 174 143 95 6 0.1904 0.9794 0.1302 0.9345 0.1904 0.6431 
3 95 143 69 6 0.1904 0.6431 0.1302 0.9345 0.1246 0.9338 
3 95 69 68 6 0.1904 0.6431 0.1246 0.9338 0.1246 0.657 
3 93 134 154 6 0.8116 0.3624 0.8116 0.0261 0.8655 0.0347 
3 93 154 75 6 0.8116 0.3624 0.8655 0.0347 0.8718 0.0716 
3 93 75 74 6 0.8116 0.3624 0.8718 0.0716 0.8718 0.3442 
3 175 174 95 6 0.2895 0.9768 0.1893 0.9768 0.1893 0.6405 
3 175 95 176 6 0.2895 0.9768 0.1893 0.6405 0.3002 0.9225 
3 177 176 95 6 0.4277 0.9225 0.3002 0.9225 0.1893 0.6405 
3 177 95 178 6 0.4277 0.9225 0.1893 0.6405 0.5723 0.9225 
3 179 178 95 6 0.6972 0.9225 0.5723 0.9225 0.1893 0.6405 
3 179 95 92 6 0.6972 0.9225 0.1893 0.6405 0.8124 0.6405 
3 179 92 173 6 0.6972 0.9225 0.8124 0.6405 0.8124 0.9768 
3 179 173 180 6 0.6972 0.9225 0.8124 0.9768 0.7066 0.9768 
3 181 177 178 6 0.4401 0.9768 0.4277 0.9225 0.5723 0.9225 
3 181 178 182 6 0.4401 0.9768 0.5723 0.9225 0.5616 0.9768 
3 68 78 96 6 0.129 0.6001 0.129 0.4097 0.192 0.3634 
3 68 96 95 6 0.129 0.6001 0.192 0.3634 0.192 0.6484 
3 76 75 144 6 0.9532 0.4314 0.9844 0.4177 0.9844 0.4275 
3 76 144 147 6 0.9532 0.4314 0.9844 0.4275 0.9844 0.5809 
3 72 76 147 6 0.9532 0.564 0.9532 0.4314 0.9844 0.5809 
3 72 147 73 6 0.9532 0.564 0.9844 0.5809 0.9844 0.5884 
3 183 184 185 6 0.7218 0.5454 0.7218 0.4729 0.7472 0.4729 
3 183 185 186 6 0.7218 0.5454 0.7472 0.4729 0.7472 0.5454 
3 73 147 146 6 0.8736 0.9339 0.877 0.9361 0.8757 0.9442 
3 73 146 187 6 0.8736 0.9339 0.8757 0.9442 0.871 0.9732 
3 73 187 172 6 0.8736 0.9339 0.871 0.9732 0.8674 0.9708 
3 149 139 96 6 0.1347 0.0261 0.1885 0.0261 0.1885 0.3624 
3 149 96 132 6 0.1347 0.0261 0.1885 0.3624 0.1285 0.0709 
3 79 132 96 6 0.1229 0.0733 0.1285 0.0709 0.1885 0.3624 
3 79 96 78 6 0.1229 0.0733 0.1885 0.3624 0.1229 0.3485 
3 71 74 76 6 0.871 0.5969 0.871 0.4044 0.9498 0.4204 
3 71 76 72 6 0.871 0.5969 0.9498 0.4204 0.9498 0.577 
3 105 106 185 6 1.6976 0.3363 1.7589 0.3363 1.7589 0.3562 
3 105 185 184 6 1.6976 0.3363 1.7589 0.3562 1.6976 0.3562 
3 105 184 183 6 -0.1282 0.3363 -0.1282 0.3562 -0.2007 0.3562 
3 105 183 108 6 -0.1282 0.3363 -0.2007 0.3562 -0.2007 0.3363 
3 133 180 173 6 -1.6635 0.0133 -1.6635 0.2983 -1.9187 0.2983 
3 133 173 134 6 -1.6635 0.0133 -1.9187 0.2983 -1.9187 0.0133 
3 103 104 90 6 1.5219 0.3363 1.6756 0.3363 1.6756 0.3425 
3 103 90 89 6 1.5219 0.3363 1.6756 0.3425 1.5219 0.3425 
3 90 104 109 6 0.0764 0.3425 0.0764 0.3363 0.2489 0.3363 
3 90 109 91 6 0.0764 0.3425 0.2489 0.3363 0.2489 0.3425 
3 103 89 88 6 -0.0764 0.3363 -0.0764 0.3425 -0.2489 0.3425 
3 103 88 110 6 -0.0764 0.3363 -0.2489 0.3425 -0.2489 0.3363 
3 140 139 174 6 -0.6579 0.0133 -0.4162 0.0133 -0.4162 0.2983 
3 140 174 175 6 -0.6579 0.0133 -0.4162 0.2983 -0.6579 0.2983 
3 138 176 177 6 -0.6837 0.0133 -0.6837 0.2983 -0.9912 0.2983 
3 138 177 137 6 -0.6837 0.0133 -0.9912 0.2983 -0.9912 0.0133 
3 176 138 140 6 0.2983 0.3422 0.0133 0.3422 0.0133 0.2821 
3 176 140 175 6 0.2983 0.3422 0.0133 0.2821 0.2983 0.2821 
3 149 148 174 6 -0.2922 0.0513 -0.2922 0.2588 -0.4162 0.2983 
3 149 174 139 6 -0.2922 0.0513 -0.4162 0.2983 -0.4162 0.0133 
3 97 151 150 6 -0.0969 0.3363 -0.0969 0.3425 -0.2281 0.3425 
3 97 150 115 6 -0.0969 0.3363 -0.2281 0.3425 -0.2281 0.3363 
3 152 98 114 6 0.0969 0.3425 0.0969 0.3363 0.2281 0.3363 
3 152 114 153 6 0.0969 0.3425 0.2281 0.3363 0.2281 0.3425 
3 145 155 187 6 0.07 0.779 0.0675 0.7481 0.2479 0.7481 
3 145 187 146 6 0.07 0.779 0.2479 0.7481 0.2446 0.779 
3 97 98 152 6 0.6473 0.3363 0.8523 0.3363 0.8523 0.3425 
3 97 152 151 6 0.6473 0.3363 0.8523 0.3425 0.6473 0.3425 
3 114 115 150 6 -0.8523 0.3363 -0.6473 0.3363 -0.6473 0.3425 
3 114 150 153 6 -0.8523 0.3363 -0.6473 0.3425 -0.8523 0.3425 
3 117 116 156 6 -0.6271 0.3363 -0.5671 0.3363 -0.5671 0.3562 
3 117 156 159 6 -0.6271 0.3363 -0.5671 0.3562 -0.6271 0.3562 
3 158 118 117 6 0.1293 0.3562 0.1293 0.3363 0.2006 0.3363 
3 158 117 159 6 0.1293 0.3562 0.2006 0.3363 0.2006 0.3562 
3 94 118 158 6 0.5671 0.3363 0.6271 0.3363 0.6271 0.3562 
3 94 158 157 6 0.5671 0.3363 0.6271 0.3562 0.5671 0.3562 
3 94 157 156 6 -0.1293 0.3363 -0.1293 0.3562 -0.2007 0.3562 
3 94 156 116 6 -0.1293 0.3363 -0.2007 0.3562 -0.2007 0.3363 
3 102 125 162 6 1.0789 0.3363 1.2264 0.3363 1.2264 0.3425 
3 102 162 161 6 1.0789 0.3363 1.2264 0.3425 1.0789 0.3425 
3 162 125 123 6 0.1391 0.3425 0.1391 0.3363 0.1791 0.3363 
3 162 123 163 6 0.1391 0.3425 0.1791 0.3363 0.1791 0.3425 
3 124 165 164 6 -0.1254 0.3363 -0.1254 0.3562 -0.1979 0.3562 
3 124 164 122 6 -0.1254 0.3363 -0.1979 0.3562 -0.1979 0.3363 
3 82 120 119 6 0.1403 0.3425 0.1403 0.3363 0.1866 0.3363 
3 82 119 83 6 0.1403 0.3425 0.1866 0.3363 0.1866 0.3425 
3 124 126 166 6 1.2427 0.3363 1.3052 0.3363 1.3052 0.3562 
3 124 166 165 6 1.2427 0.3363 1.3052 0.3562 1.2427 0.3562 
3 123 121 160 6 -1.2264 0.3363 -1.0789 0.3363 -1.0789 0.3425 
3 123 160 163 6 -1.2264 0.3363 -1.0789 0.3425 -1.2264 0.3425 
3 129 130 168 6 -1.5156 0.3363 -1.3131 0.3363 -1.3131 0.3425 
3 129 168 171 6 -1.5156 0.3363 -1.3131 0.3425 -1.5156 0.3425 
3 166 126 131 6 0.1254 0.3562 0.1254 0.3363 0.1979 0.3363 
3 166 131 167 6 0.1254 0.3562 0.1979 0.3363 0.1979 0.3562 
3 127 128 170 6 1.3131 0.3363 1.5156 0.3363 1.5156 0.3425 
3 127 170 169 6 1.3131 0.3363 1.5156 0.3425 1.3131 0.3425 
3 170 128 129 6 0.1414 0.3425 0.1414 0.3363 0.1866 0.3363 
3 170 129 171 6 0.1414 0.3425 0.1866 0.3363 0.1866 0.3425 
3 99 120 82 6 0.8619 0.3363 1.0082 0.3363 1.0082 0.3425 
3 99 82 81 6 0.8619 0.3363 1.0082 0.3425 0.8619 0.3425 
3 131 122 164 6 -1.3052 0.3363 -1.2427 0.3363 -1.2427 0.3562 
3 131 164 167 6 -1.3052 0.3363 -1.2427 0.3562 -1.3052 0.3562 
3 102 161 160 6 -0.1391 0.3363 -0.1391 0.3425 -0.1791 0.3425 
3 102 160 121 6 -0.1391 0.3363 -0.1791 0.3425 -0.1791 0.3363 
3 127 169 168 6 -0.1414 0.3363 -0.1414 0.3425 -0.1864 0.3425 
3 127 168 130 6 -0.1414 0.3363 -0.1864 0.3425 -0.1864 0.3363 
3 119 113 80 6 -1.0082 0.3363 -0.8619 0.3363 -0.8619 0.3425 
3 119 80 83 6 -1.0082 0.3363 -0.8619 0.3425 -1.0082 0.3425 
3 141 181 182 6 -1.021 0.0133 -1.021 0.2983 -1.3139 0.2983 
3 141 182 142 6 -1.021 0.0133 -1.3139 0.2983 -1.3139 0.0133 
3 185 106 107 6 0.1282 0.3562 0.1282 0.3363 0.2006 0.3363 
3 185 107 186 6 0.1282 0.3562 0.2006 0.3363 0.2006 0.3562 
3 100 101 86 6 1.0235 0.3363 1.0547 0.3363 1.0547 0.3562 
3 100 86 85 6 1.0235 0.3363 1.0547 0.3562 1.0235 0.3562 
3 100 85 84 6 -0.1254 0.3363 -0.1254 0.3562 -0.1962 0.3562 
3 100 84 112 6 -0.1254 0.3363 -0.1962 0.3562 -0.1962 0.3363 
3 141 137 177 6 -0.0133 -0.4919 -0.0133 -0.4299 -0.2983 -0.4299 
3 141 177 181 6 -0.0133 -0.4919 -0.2983 -0.4299 -0.2983 -0.4919 
3 86 101 111 6 0.1254 0.3562 0.1254 0.3363 0.1962 0.3363 
3 86 111 87 6 0.1254 0.3562 0.1962 0.3363 0.1962 0.3562 
3 111 112 84 6 -1.0547 0.3363 -1.0235 0.3363 -1.0235 0.3562 
3 111 84 87 6 -1.0547 0.3363 -1.0235 0.3562 -1.0547 0.3562 
3 136 178 179 6 -1.3397 0.0133 -1.3397 0.2983 -1.6409 0.2983 
3 136 179 135 6 -1.3397 0.0133 -1.6409 0.2983 -1.6409 0.0133 
3 134 173 172 6 0.0133 1.914 0.2983 1.914 0.257 2.0374 
3 134 172 154 6 0.0133 1.914 0.257 2.0374 0.0548 2.0374 
3 154 172 187 6 0.0548 2.0374 0.257 2.0374 0.2479 2.0374 
3 154 187 155 6 0.0548 2.0374 0.2479 2.0374 0.0675 2.0374 
3 107 108 183 6 -1.7589 0.3363 -1.6976 0.3363 -1.6976 0.3562 
3 107 183 186 6 -1.7589 0.3363 -1.6976 0.3562 -1.7589 0.3562 
3 109 110 88 6 -1.6756 0.3363 -1.5219 0.3363 -1.5219 0.3425 
3 109 88 91 6 -1.6756 0.3363 -1.5219 0.3425 -1.6756 0.3425 
3 180 133 135 6 -0.2983 -0.6388 -0.0133 -0.6388 -0.0133 -0.58 
3 180 135 179 6 -0.2983 -0.6388 -0.0133 -0.58 -0.2983 -0.58 
3 99 81 80 6 -0.1403 0.3363 -0.1403 0.3425 -0.1864 0.3425 
3 99 80 113 6 -0.1403 0.3363 -0.1864 0.3425 -0.1864 0.3363 
3 136 142 182 6 0.0133 0.6234 0.0133 0.5633 0.2983 0.5633 
3 136 182 178 6 0.0133 0.6234 0.2983 0.5633 0.2983 0.6234 
